<?xml version="1.0" encoding="UTF-8"?>
<svg width="189px" height="50px" viewBox="0 0 189 50" version="1.1" xmlns="http://www.w3.org/2000/svg" xmlns:xlink="http://www.w3.org/1999/xlink">
    <!-- Generator: Sketch 46.2 (44496) - http://www.bohemiancoding.com/sketch -->
    <title>Breeze</title>
    <desc>Created with Sketch.</desc>
    <defs>
        <linearGradient x1="100%" y1="57.2070535%" x2="0%" y2="63.8829438%" id="linearGradient-1">
            <stop stop-color="#CFD8DB" offset="0%"></stop>
            <stop stop-color="#CFD8DB" offset="64.165769%"></stop>
            <stop stop-color="#F69D32" offset="65.9574301%"></stop>
            <stop stop-color="#F69D32" offset="100%"></stop>
        </linearGradient>
    </defs>
    <g id="Page-1" stroke="none" stroke-width="1" fill="none" fill-rule="evenodd">
        <g id="Breeze-Wallet---Stratis-light---welcome" transform="translate(-266.000000, -553.000000)" fill="url(#linearGradient-1)">
            <g id="software">
                <g id="logo" transform="translate(266.000000, 553.000000)">
                    <path d="M97.3602041,38.7028061 C96.8918367,38.7028061 96.5183673,38.5461735 96.1826531,38.2104592 C95.8311224,37.8691327 95.6704082,37.4905612 95.6704082,37.0130102 L95.6704082,20.9339286 C95.6704082,20.4701531 95.8311224,20.0982143 96.1755102,19.7635204 C96.5244898,19.4043367 96.8964286,19.2441327 97.3602041,19.2441327 C98.2469388,19.2441327 98.7306122,19.6109694 98.977551,20.4706633 L99.2464286,21.4079082 L100.064796,20.8767857 C101.695918,19.8181122 103.494388,19.2691327 105.409184,19.2441327 C105.877041,19.2441327 106.255102,19.4048469 106.590306,19.7492347 C106.933163,20.0920918 107.089286,20.4665816 107.089286,20.9339286 C107.089286,21.4288265 106.933163,21.8160714 106.597449,22.1517857 C106.272959,22.4670918 105.878571,22.6237245 105.4,22.6237245 C103.637755,22.6237245 102.12449,23.2584184 100.903061,24.509949 C100.307653,25.1053571 99.8484694,25.7875 99.5459184,26.5298469 C99.4520408,26.7375 99.3015306,27.2140306 99.0576531,28.8686224 L99.05,28.9206633 L99.05,37.0130102 C99.05,37.4946429 98.8938776,37.8757653 98.5581633,38.209949 C98.222449,38.5461735 97.8418367,38.7028061 97.3602041,38.7028061 Z M117.624286,38.7027041 C117.142653,38.7027041 116.653878,38.6771939 116.172245,38.6266837 C114.020204,38.3312755 112.143673,37.4057653 110.617653,35.8792347 C109.772755,35.0348469 109.092653,34.0460714 108.595204,32.9384184 L108.479388,32.6690306 L108.371735,32.3777041 C107.976837,31.2562755 107.774286,30.1134184 107.774286,28.9935204 C107.774286,27.7271939 108.032959,26.4613776 108.543163,25.2302551 C109.28551,23.4486224 110.491122,22.0113776 112.126327,20.9588265 C113.70898,19.9481122 115.531429,19.3838265 117.539082,19.2838265 L117.865612,19.2843367 C119.596224,19.2843367 121.264082,19.8297449 122.822245,20.9052551 C124.381429,21.9817857 125.590102,23.4169898 126.414592,25.1710714 C126.424796,25.2021939 126.436531,25.2322959 126.449796,25.2629082 L126.449796,25.3960714 L126.469184,25.4169898 L126.469184,25.4333163 L126.489082,25.4572959 L126.489082,25.4828061 L126.50898,25.5093367 L126.50898,25.5940306 L126.549796,25.6394388 L126.549796,25.6634184 L126.569694,25.6879082 L126.569694,26.1654592 L126.50898,26.1955612 L126.50898,26.5129082 L126.449796,26.5756633 L126.449796,26.6067857 L126.428367,26.6282143 L126.420714,26.695051 L126.267653,26.7675 L126.267653,26.9889286 L126.218673,27.0756633 C126.205408,27.0894388 126.037551,27.2527041 126.037551,27.2527041 L126.022755,27.2761735 L126.005408,27.2914796 L125.990612,27.2991327 C125.990612,27.2991327 125.938061,27.345051 125.93449,27.3470918 L125.383469,27.3470918 L125.383469,27.6180102 L112.369184,32.9093367 L113.190102,33.6802551 C113.438571,33.9134184 113.708469,34.1195408 113.991633,34.2930102 C114.924286,34.9353571 116.030408,35.3027041 117.247755,35.3629082 L117.463571,35.3634184 C118.587041,35.3634184 119.651327,35.089949 120.627347,34.5496429 C121.345714,34.1282143 122.064592,33.4368878 122.840102,32.4282143 C123.13602,31.9731122 123.487041,31.7190306 123.949286,31.6032143 C124.094694,31.562398 124.217143,31.545051 124.336531,31.545051 C124.657449,31.545051 124.947755,31.6282143 125.222755,31.7981122 C125.624286,32.0470918 125.86,32.3756633 125.964082,32.8322959 C125.990612,32.9736224 126.006939,33.1307653 126.006939,33.2746429 C126.006939,33.5828061 125.924286,33.8664796 125.754388,34.139949 C124.557449,35.7134184 123.379898,36.8521939 122.291633,37.4705612 C120.843673,38.2879082 119.272755,38.7027041 117.624286,38.7027041 Z M139.191633,38.7027041 C138.71,38.7027041 138.221224,38.6771939 137.739592,38.6266837 C135.587041,38.3312755 133.711531,37.4057653 132.185,35.8792347 C131.340612,35.0348469 130.66051,34.0460714 130.162551,32.9384184 L130.046735,32.6690306 L129.939082,32.3777041 C129.544694,31.2557653 129.341633,30.1118878 129.341633,28.9935204 C129.341633,27.7271939 129.600816,26.4613776 130.11102,25.2302551 C130.853367,23.4486224 132.05898,22.0113776 133.694184,20.9588265 C135.276837,19.9481122 137.098265,19.3838265 139.106939,19.2838265 L139.432959,19.2843367 C141.163571,19.2843367 142.831429,19.8297449 144.389082,20.9052551 C145.948265,21.9817857 147.156939,23.4169898 147.981429,25.1710714 C147.992143,25.2021939 148.003367,25.2322959 148.016633,25.2629082 L148.016633,25.3848469 L148.036531,25.4072959 L148.036531,25.4333163 L148.056429,25.4572959 L148.056429,25.4940306 L148.076837,25.520051 L148.076837,25.5940306 L148.117143,25.6384184 L148.117143,25.6746429 L148.136531,25.6986224 L148.136531,26.1659694 L148.076837,26.1955612 L148.076837,26.512398 L148.016633,26.5756633 L148.016633,26.6042347 L147.996224,26.6246429 L147.988061,26.6955612 L147.83551,26.7675 L147.83551,26.9879082 L147.826327,26.9965816 L147.785,27.0777041 C147.772245,27.0904592 147.76102,27.1042347 147.749286,27.1164796 L147.737041,27.1251531 L147.604388,27.2578061 L147.595204,27.2720918 C147.595204,27.2720918 147.506939,27.3440306 147.501837,27.3470918 L146.951327,27.3470918 L146.951327,27.6175 L133.93602,32.9103571 L134.758469,33.6807653 C135.007449,33.9144388 135.276837,34.120051 135.55898,34.2930102 C136.492143,34.9353571 137.598265,35.3027041 138.815102,35.3629082 L139.030918,35.3634184 C140.154898,35.3634184 141.219184,35.089949 142.194694,34.5496429 C142.913061,34.1282143 143.631939,33.4368878 144.407449,32.4282143 C144.702857,31.9731122 145.053878,31.7190306 145.516633,31.6032143 C145.662551,31.562398 145.78449,31.545051 145.904388,31.545051 C146.225306,31.545051 146.515102,31.6271939 146.789592,31.7981122 C147.191633,32.0470918 147.427347,32.3756633 147.532449,32.8333163 C147.557449,32.9731122 147.573776,33.1317857 147.573776,33.2746429 C147.573776,33.5828061 147.491122,33.8664796 147.321224,34.139949 C146.124796,35.7134184 144.946735,36.8532143 143.85949,37.4705612 C142.41102,38.2879082 140.839592,38.7027041 139.191633,38.7027041 Z M151.415969,38.7028061 C150.779745,38.7028061 150.304745,38.5181122 149.962398,38.1380102 C149.635357,37.8002551 149.484847,37.3987245 149.484847,36.892602 C149.484847,36.8038265 149.489439,36.7191327 149.499133,36.6395408 C149.51801,36.4839286 149.632296,36.1451531 150.190969,35.6007653 L158.057296,27.7145408 L163.148112,22.6237245 L151.154235,22.6237245 C150.688929,22.6237245 150.301173,22.4670918 149.969541,22.1446429 C149.624643,21.809949 149.464439,21.4247449 149.464439,20.9339286 C149.464439,20.4701531 149.624643,20.0982143 149.969541,19.7635204 C150.31852,19.4043367 150.690459,19.2441327 151.154235,19.2441327 L167.032296,19.2441327 C167.887908,19.2441327 168.415969,19.5762755 168.74352,20.3206633 C168.850663,20.5645408 168.902704,20.7977041 168.902704,21.0339286 C168.902704,21.4553571 168.715969,21.8471939 168.330765,22.232398 L155.239439,35.3232143 L167.212908,35.3232143 C167.708827,35.3232143 168.088929,35.4737245 168.411378,35.7951531 C168.739949,36.1329082 168.902704,36.5344388 168.902704,37.0130102 C168.902704,37.4783163 168.739949,37.8727041 168.404235,38.217602 C168.082296,38.5492347 167.704745,38.7028061 167.212908,38.7028061 L151.415969,38.7028061 Z M179.318827,38.7027041 C178.837194,38.7027041 178.348418,38.6771939 177.866786,38.6266837 C175.714235,38.3312755 173.838724,37.4057653 172.312194,35.8792347 C171.468316,35.0348469 170.787704,34.0460714 170.289745,32.9384184 L170.173929,32.6690306 L170.066276,32.3777041 C169.671378,31.2557653 169.468827,30.1118878 169.468827,28.9935204 C169.468827,27.7271939 169.72801,26.4613776 170.238214,25.2302551 C170.980051,23.4486224 172.186173,22.0113776 173.820867,20.9588265 C175.404031,19.9481122 177.225459,19.3838265 179.234133,19.2838265 L179.560153,19.2843367 C181.290765,19.2843367 182.958622,19.8297449 184.516276,20.9052551 C186.075459,21.9817857 187.284133,23.4169898 188.108622,25.1710714 C188.119337,25.2021939 188.130561,25.2322959 188.143827,25.2629082 L188.143827,25.3848469 L188.163724,25.4072959 L188.163724,25.4333163 L188.183622,25.4572959 L188.183622,25.4940306 L188.204031,25.520051 L188.204031,25.5940306 L188.244337,25.6384184 L188.244337,25.6746429 L188.263724,25.6986224 L188.263724,26.1659694 L188.204031,26.1955612 L188.204031,26.512398 L188.143827,26.5756633 L188.143827,26.6042347 L188.123418,26.6246429 L188.115255,26.6955612 L187.962704,26.7675 L187.962704,26.9879082 L187.95352,26.9965816 L187.911684,27.0777041 C187.899439,27.0904592 187.888214,27.1042347 187.87648,27.1164796 L187.864235,27.1251531 L187.731582,27.2578061 L187.722398,27.2720918 C187.722398,27.2720918 187.634133,27.3440306 187.629031,27.3470918 L187.07852,27.3470918 L187.07852,27.6175 L174.062704,32.9103571 L174.885663,33.6807653 C175.134643,33.9144388 175.404031,34.120051 175.686173,34.2930102 C176.619337,34.9353571 177.725459,35.3027041 178.942296,35.3629082 L179.158112,35.3634184 C180.282092,35.3634184 181.346378,35.089949 182.321888,34.5496429 C183.040255,34.1282143 183.758622,33.4368878 184.534643,32.4282143 C184.830051,31.9731122 185.181071,31.7190306 185.643827,31.6032143 C185.789745,31.562398 185.911684,31.545051 186.031582,31.545051 C186.3525,31.545051 186.642296,31.6271939 186.916786,31.7981122 C187.318827,32.0470918 187.554541,32.3756633 187.659643,32.8333163 C187.684643,32.9731122 187.700969,33.1317857 187.700969,33.2746429 C187.700969,33.5828061 187.618316,33.8664796 187.448418,34.139949 C186.25199,35.7134184 185.073929,36.8532143 183.986684,37.4705612 C182.538214,38.2879082 180.966786,38.7027041 179.318827,38.7027041 Z M83.6085204,38.7028061 C82.3457653,38.7028061 81.1018878,38.4456633 79.9120918,37.9369898 C79.3814796,37.715051 78.8712755,37.434949 78.3916837,37.1028061 L77.5763776,36.5385204 L77.2896429,37.4869898 C77.0319898,38.3395408 76.5467857,38.7028061 75.6692347,38.7028061 C75.2034184,38.7028061 74.8095408,38.540051 74.4646429,38.2033163 C74.1355612,37.8757653 73.9794388,37.4956633 73.9794388,37.0130102 L73.9794388,12.9140306 C73.9794388,12.4466837 74.1360714,12.0721939 74.4717857,11.7364796 C74.8207653,11.3875 75.2013776,11.2247449 75.6692347,11.2247449 C76.1309694,11.2247449 76.5228061,11.3915816 76.8671939,11.7364796 C77.202398,12.0727041 77.3590306,12.4466837 77.3590306,12.9140306 L77.3590306,21.4686224 L78.4620918,20.7839286 C78.8217857,20.5604592 79.1998469,20.3594388 79.5845408,20.184949 C80.8120918,19.6089286 82.1646429,19.2936224 83.6131122,19.2436224 L83.6855612,19.2772959 L83.8411735,19.2839286 C86.7115816,19.3982143 88.9942347,20.4017857 90.8187245,22.3522959 C92.5391327,24.2232143 93.3779082,26.3839286 93.3779082,28.9538265 L93.3779082,29.1747449 C93.327398,31.8191327 92.4105612,34.0033163 90.5743367,35.8395408 C89.185051,37.2288265 87.4988265,38.1216837 85.5620918,38.4941327 C84.8947449,38.6339286 84.2411735,38.7028061 83.6085204,38.7028061 Z M83.6901531,22.6237245 C81.9539286,22.6686224 80.4575,23.3002551 79.2421939,24.5002551 C77.9927041,25.7344388 77.3590306,27.2395408 77.3590306,28.9737245 C77.3590306,30.4517857 77.8467857,31.7966837 78.8095408,32.9691327 C79.7534184,34.1380102 80.9682143,34.8859694 82.4156633,35.1875 C82.8682143,35.2783163 83.3080102,35.3232143 83.7289286,35.3232143 C84.9396429,35.3232143 86.0998469,34.9660714 87.1789286,34.2604592 C88.6406633,33.2966837 89.5564796,31.9461735 89.9034184,30.2431122 C89.9927041,29.8278061 90.0386224,29.3910714 90.0386224,28.9538265 C90.0386224,28.0002551 89.8166837,27.0732143 89.3794388,26.1987245 C88.7365816,24.882398 87.7580102,23.8982143 86.4748469,23.2783163 C85.6641327,22.8880102 84.7442347,22.6686224 83.7406633,22.6242347 L83.7156633,22.6232143 L83.6901531,22.6237245 Z M138.990612,22.6639286 C136.800816,22.6639286 135.056939,23.6103571 133.807959,25.4761735 C133.163061,26.4067857 132.802347,27.4720918 132.742653,28.6348469 L132.68449,29.7664796 L144.176837,25.1154592 L143.339592,24.3430102 C142.361531,23.4404592 141.228367,22.897602 139.970204,22.7302551 C139.642143,22.6863776 139.312041,22.6639286 138.990612,22.6639286 Z M179.117806,22.6639286 C176.92801,22.6639286 175.184133,23.6103571 173.935153,25.4761735 C173.289745,26.4067857 172.929541,27.4720918 172.869337,28.6348469 L172.811684,29.7664796 L184.304031,25.1154592 L183.466786,24.3430102 C182.488724,23.4404592 181.355561,22.897602 180.097398,22.7302551 C179.769337,22.6863776 179.439235,22.6639286 179.117806,22.6639286 Z M117.422755,22.6639286 C115.233469,22.6639286 113.489592,23.6103571 112.240612,25.4761735 C111.595714,26.4067857 111.235,27.4720918 111.174796,28.6343367 L111.116122,29.7664796 L122.608469,25.1154592 L121.771735,24.3430102 C120.794694,23.4404592 119.66102,22.897602 118.402347,22.7302551 C118.074286,22.6863776 117.744694,22.6639286 117.422755,22.6639286 Z M37.6306633,38.592449 C34.4689286,37.5710204 31.1051531,34.142449 29.1485204,31.3582653 C27.1918878,28.5740816 24.9393367,22.939898 18.8806633,24.0240816 C13.6857653,24.9536735 11.4066837,31.1077551 6.60413265,31.2516327 C4.77403061,31.3067347 3.37607143,30.575102 2.52862245,29.8358163 C11.8755612,31.1322449 12.3255612,16.4026531 20.8362755,15.4995918 C27.1270918,14.8322449 29.7469898,19.7307143 31.7255612,23.8103061 C35.3622959,31.3082653 38.3852551,38.0291837 48.1536224,37.3531633 C47.0260714,38.1526531 42.1980102,40.0684694 37.6306633,38.592449 M50.0883163,34.8021429 C42.2225,35.9929592 37.650051,30.2827551 35.7852551,25.8796939 C32.6138265,18.3909184 29.9352551,12.7786735 20.475051,13.5332653 C22.1796429,12.7511224 24.5536224,11.7077551 28.5107653,12.0664286 C37.3117857,12.8633673 39.4801531,27.0853061 48.7520918,27.4980612 C54.5362755,27.7552041 57.6561735,25.1720408 58.7077041,19.6194898 C58.7117857,19.5960204 58.7444388,19.5888776 58.7617857,19.5730612 C55.9730102,6.69857143 43.5321939,-1.84632653 30.3980102,0.341428571 C19.8418878,2.09959184 11.9638265,10.2735714 10.0719898,20.2062245 C10.0719898,20.2062245 9.29545918,23.850102 6.35872449,26.7031633 C4.74443878,28.2710204 4.00515306,28.3608163 3.00260204,28.3490816 C1.69392857,28.3342857 5.10204081e-05,27.3169388 5.10204081e-05,27.3169388 C5.10204081e-05,27.3169388 0.510765306,32.8817347 6.3102551,33.2628571 C7.65107143,33.3511224 10.8184184,33.0720408 11.7684184,34.9363265 C16.2510714,45.0531633 27.1434184,51.267449 38.5633163,49.364898 C50.7219898,47.339898 59.3321939,36.8062245 59.3281122,24.8740816 C57.6709694,30.3531633 54.8153571,34.0868367 50.0883163,34.8021429" id="Breeze"></path>
                </g>
            </g>
        </g>
    </g>
</svg>