<?xml version="1.0" encoding="UTF-8"?>
<svg width="42px" height="42px" viewBox="0 0 42 42" version="1.1" xmlns="http://www.w3.org/2000/svg" xmlns:xlink="http://www.w3.org/1999/xlink">
    <!-- Generator: Sketch 46.2 (44496) - http://www.bohemiancoding.com/sketch -->
    <title>Bitcoin (active)</title>
    <desc>Created with Sketch.</desc>
    <defs>
        <rect id="path-1" x="0" y="0" width="42" height="42" rx="8"></rect>
    </defs>
    <g id="Page-1" stroke="none" stroke-width="1" fill="none" fill-rule="evenodd">
        <g id="Breeze-Wallet---Stratis-light---Tumbling---V2-after-review" transform="translate(-9.000000, -30.000000)">
            <g id="wallet" transform="translate(-5.000000, -10.000000)">
                <g id="content">
                    <g id="left-nav" transform="translate(0.000000, 10.000000)">
                        <g id="content" transform="translate(14.000000, 30.000000)">
                            <g id="icons">
                                <g id="Bitcoin-(active)">
                                    <mask id="mask-2" fill="white">
                                        <use xlink:href="#path-1"></use>
                                    </mask>
                                    <use id="Mask" fill="#F69D32" xlink:href="#path-1"></use>
                                    <path d="M27.274994,20.6150151 C26.5661248,20.0811297 25.556326,19.867595 25.556326,19.867595 C25.556326,19.867595 26.4108533,19.3721633 26.7600442,18.8772172 C27.1096236,18.3820769 27.2843161,17.6149444 27.3135449,17.2169095 C27.3425794,16.8186803 27.4106502,15.1489534 26.1095353,14.1879015 C25.1031352,13.4442685 23.9498146,13.1490681 22.4010809,13.0530309 L22.4010809,9.68328014 L20.3234143,9.68328014 L20.3234143,13.0132177 C19.8598332,13.0132177 19.3180823,13.0132177 18.740888,13.0132177 L18.740888,9.68328014 L16.6634155,9.68328014 L16.6634155,13.0132177 C14.542537,13.0132177 12.576056,13.0132177 12.576056,13.0132177 L12.576056,15.1708021 C12.576056,15.1708021 13.4498102,15.1708021 13.7774437,15.1708021 C14.1049802,15.1708021 14.6875153,15.2072166 14.9350369,15.4842583 C15.1826556,15.7608144 15.2263531,15.9065695 15.2263531,16.445116 C15.2263531,16.9838566 15.2264502,24.8384192 15.2264502,25.0423405 C15.2264502,25.2461647 15.187608,25.4984445 15.0127212,25.6636207 C14.8381258,25.828797 14.6634332,25.8673478 14.245783,25.8673478 C13.8282298,25.8673478 13.0032226,25.8673478 13.0032226,25.8673478 L12.576056,28.3627618 C12.576056,28.3627618 14.6073063,28.3627618 16.6634155,28.3627618 L16.6634155,31.6832801 L18.7409851,31.6832801 L18.7409851,28.3627618 C19.3793558,28.3627618 19.935187,28.3627618 20.3235114,28.3627618 L20.3235114,31.6832801 L22.4011781,31.6832801 L22.4011781,28.3079943 C22.9382679,28.2766293 23.4390403,28.2359421 23.7311333,28.1976826 C24.3234761,28.1201925 25.6631419,27.9648239 26.9158012,27.0909726 C28.1680722,26.2170243 28.4493865,24.8480327 28.4786152,23.4695247 C28.5081352,22.0909197 27.9831835,21.1489975 27.274994,20.6150151 Z M18.740888,15.3627794 C18.740888,15.3627794 19.4010103,15.3046133 20.0515192,15.3141296 C20.7022224,15.3237431 21.2747557,15.3432612 22.1293801,15.6054458 C22.9836161,15.8677274 23.4880785,16.5085258 23.507888,17.2658506 C23.527212,18.0231754 23.1967624,18.5278321 22.6145186,18.8482798 C22.0320805,19.1686305 21.2266885,19.3434201 20.4690724,19.3722604 C19.7119417,19.4014892 18.740888,19.3722604 18.740888,19.3722604 L18.740888,15.3627794 L18.740888,15.3627794 Z M23.3912645,25.2946203 C22.9155452,25.5569019 21.9640096,25.7898577 21.041897,25.8576373 C20.119493,25.9257081 18.740888,25.8965765 18.740888,25.8965765 L18.740888,21.4401194 C18.740888,21.4401194 20.0613269,21.3723399 21.0905468,21.4401194 C22.1195725,21.5083845 22.9836161,21.7702777 23.3717463,21.9647798 C23.7600707,22.1587963 24.4399054,22.5858658 24.4399054,23.6054722 C24.4399054,24.6246903 23.8666924,25.0325329 23.3912645,25.2946203 Z" id="BTC_alt_1_" fill="#FFFFFF" fill-rule="nonzero" mask="url(#mask-2)" transform="translate(20.527929, 20.683280) rotate(-345.000000) translate(-20.527929, -20.683280) "></path>
                                </g>
                            </g>
                        </g>
                    </g>
                </g>
            </g>
        </g>
    </g>
</svg>