<?xml version="1.0" encoding="UTF-8"?>
<svg width="42px" height="42px" viewBox="0 0 42 42" version="1.1" xmlns="http://www.w3.org/2000/svg" xmlns:xlink="http://www.w3.org/1999/xlink">
    <!-- Generator: Sketch 46.2 (44496) - http://www.bohemiancoding.com/sketch -->
    <title>Bitcoin (active)</title>
    <desc>Created with Sketch.</desc>
    <defs>
        <rect id="path-1" x="0" y="0" width="42" height="42" rx="8"></rect>
    </defs>
    <g id="Page-1" stroke="none" stroke-width="1" fill="none" fill-rule="evenodd">
        <g id="Breeze-Wallet---V2" transform="translate(-14.000000, -30.000000)">
            <g id="wallet" transform="translate(0.000000, -24.000000)">
                <g id="content">
                    <g id="left-nav" transform="translate(0.000000, 24.000000)">
                        <g id="content" transform="translate(14.000000, 30.000000)">
                            <g id="icons">
                                <g id="Bitcoin-(active)">
                                    <mask id="mask-2" fill="white">
                                        <use xlink:href="#path-1"></use>
                                    </mask>
                                    <use id="Mask" fill="#FFFFFF" xlink:href="#path-1"></use>
                                    <path d="M28.274994,20.6150151 C27.5661248,20.0811297 26.556326,19.867595 26.556326,19.867595 C26.556326,19.867595 27.4108533,19.3721633 27.7600442,18.8772172 C28.1096236,18.3820769 28.2843161,17.6149444 28.3135449,17.2169095 C28.3425794,16.8186803 28.4106502,15.1489534 27.1095353,14.1879015 C26.1031352,13.4442685 24.9498146,13.1490681 23.4010809,13.0530309 L23.4010809,9.68328014 L21.3234143,9.68328014 L21.3234143,13.0132177 C20.8598332,13.0132177 20.3180823,13.0132177 19.740888,13.0132177 L19.740888,9.68328014 L17.6634155,9.68328014 L17.6634155,13.0132177 C15.542537,13.0132177 13.576056,13.0132177 13.576056,13.0132177 L13.576056,15.1708021 C13.576056,15.1708021 14.4498102,15.1708021 14.7774437,15.1708021 C15.1049802,15.1708021 15.6875153,15.2072166 15.9350369,15.4842583 C16.1826556,15.7608144 16.2263531,15.9065695 16.2263531,16.445116 C16.2263531,16.9838566 16.2264502,24.8384192 16.2264502,25.0423405 C16.2264502,25.2461647 16.187608,25.4984445 16.0127212,25.6636207 C15.8381258,25.828797 15.6634332,25.8673478 15.245783,25.8673478 C14.8282298,25.8673478 14.0032226,25.8673478 14.0032226,25.8673478 L13.576056,28.3627618 C13.576056,28.3627618 15.6073063,28.3627618 17.6634155,28.3627618 L17.6634155,31.6832801 L19.7409851,31.6832801 L19.7409851,28.3627618 C20.3793558,28.3627618 20.935187,28.3627618 21.3235114,28.3627618 L21.3235114,31.6832801 L23.4011781,31.6832801 L23.4011781,28.3079943 C23.9382679,28.2766293 24.4390403,28.2359421 24.7311333,28.1976826 C25.3234761,28.1201925 26.6631419,27.9648239 27.9158012,27.0909726 C29.1680722,26.2170243 29.4493865,24.8480327 29.4786152,23.4695247 C29.5081352,22.0909197 28.9831835,21.1489975 28.274994,20.6150151 Z M19.740888,15.3627794 C19.740888,15.3627794 20.4010103,15.3046133 21.0515192,15.3141296 C21.7022224,15.3237431 22.2747557,15.3432612 23.1293801,15.6054458 C23.9836161,15.8677274 24.4880785,16.5085258 24.507888,17.2658506 C24.527212,18.0231754 24.1967624,18.5278321 23.6145186,18.8482798 C23.0320805,19.1686305 22.2266885,19.3434201 21.4690724,19.3722604 C20.7119417,19.4014892 19.740888,19.3722604 19.740888,19.3722604 L19.740888,15.3627794 L19.740888,15.3627794 Z M24.3912645,25.2946203 C23.9155452,25.5569019 22.9640096,25.7898577 22.041897,25.8576373 C21.119493,25.9257081 19.740888,25.8965765 19.740888,25.8965765 L19.740888,21.4401194 C19.740888,21.4401194 21.0613269,21.3723399 22.0905468,21.4401194 C23.1195725,21.5083845 23.9836161,21.7702777 24.3717463,21.9647798 C24.7600707,22.1587963 25.4399054,22.5858658 25.4399054,23.6054722 C25.4399054,24.6246903 24.8666924,25.0325329 24.3912645,25.2946203 Z" id="BTC_alt_1_" fill="#189BC5" fill-rule="nonzero" mask="url(#mask-2)" transform="translate(21.527929, 20.683280) rotate(-345.000000) translate(-21.527929, -20.683280) "></path>
                                </g>
                            </g>
                        </g>
                    </g>
                </g>
            </g>
        </g>
    </g>
</svg>