<?xml version="1.0" encoding="UTF-8"?>
<svg width="42px" height="42px" viewBox="0 0 42 42" version="1.1" xmlns="http://www.w3.org/2000/svg" xmlns:xlink="http://www.w3.org/1999/xlink">
    <!-- Generator: Sketch 46.2 (44496) - http://www.bohemiancoding.com/sketch -->
    <title>stratis</title>
    <desc>Created with Sketch.</desc>
    <defs></defs>
    <g id="Page-1" stroke="none" stroke-width="1" fill="none" fill-rule="evenodd">
        <g id="Breeze-Wallet---V2" transform="translate(-14.000000, -92.000000)">
            <g id="wallet" transform="translate(0.000000, -24.000000)">
                <g id="content">
                    <g id="left-nav" transform="translate(0.000000, 24.000000)">
                        <g id="content" transform="translate(14.000000, 30.000000)">
                            <g id="icons">
                                <g id="stratis" transform="translate(0.000000, 62.000000)">
                                    <rect id="Rectangle-3-Copy" fill="#FFFFFF" x="0" y="0" width="42" height="42" rx="8"></rect>
                                    <path d="M7.46002337,16.8770481 L20.9852984,24.4456138 C20.9942689,24.4512619 21.005565,24.4512619 21.0145354,24.4456138 L34.5368204,16.8772142 C34.5539307,16.8664164 34.5540968,16.8416646 34.5369865,16.8307007 L21.0122098,9.26097213 C21.0030732,9.25532407 20.9914449,9.25532407 20.9824744,9.26113825 L7.45969113,16.8308669 C7.44291307,16.8418307 7.44307919,16.8664164 7.46002337,16.8770481 Z M20.4827873,33.8803649 L6.15299596,25.855303 C6.14020477,25.8471632 6.13655014,25.830219 6.14468999,25.8174278 L6.76448146,24.8559287 C6.77262131,24.8431376 6.78973161,24.839649 6.80235668,24.8477889 L20.9824744,32.7876315 C20.9914449,32.7934457 21.0030732,32.7936118 21.0120437,32.7876315 L34.3017614,25.3486389 C34.628186,25.1657414 34.7919798,24.7938001 34.7919798,24.4208621 L34.7919798,22.4011824 C34.7919798,22.3794208 34.7680586,22.3662974 34.7497854,22.3779257 L21.5089068,29.7915021 C21.1439425,29.995829 20.8555592,29.9984869 20.4864419,29.7921666 L7.09572353,22.2988529 C6.40616192,21.8611283 6.00332239,21.1120959 6.00332239,20.2952869 L6,16.7662464 C6,16.2555954 6.26446208,16.0931306 6.65118803,15.8763448 L20.465677,8.14165965 C20.8047267,7.95244965 21.1929477,7.95228353 21.5338247,8.14415144 L35.5592852,15.9964491 C35.8481669,16.1582494 36,16.5001232 36,16.8439903 C36,17.1685876 35.8161058,17.532223 35.5592852,17.6760824 L21.5040893,25.5453242 C21.1444408,25.7461626 20.8500772,25.7461626 20.4899304,25.544992 L7.2359283,18.1242725 C7.21748905,18.1128102 7.19373398,18.1259337 7.19373398,18.1475292 L7.19722248,20.2952869 C7.19722248,20.6982925 7.40022039,21.0677421 7.74026679,21.2836973 L20.9826405,28.6999316 C20.991611,28.7055796 21.0030732,28.7055796 21.0120437,28.6999316 L34.5094107,21.1408346 C34.859092,20.9180685 35.3584469,20.907603 35.6823797,21.1953217 C35.8891984,21.3792159 36,21.6484955 36,21.9250843 L35.9996678,24.4117255 C35.9973421,25.180526 35.5592852,26.015276 34.9419856,26.3608044 L21.5055844,33.8833551 C21.1399556,34.0880142 20.8560575,34.0880142 20.4827873,33.8803649 L20.4827873,33.8803649 Z" id="logo" fill="#189BC5"></path>
                                </g>
                            </g>
                        </g>
                    </g>
                </g>
            </g>
        </g>
    </g>
</svg>