<?xml version="1.0" encoding="UTF-8"?>
<svg width="60px" height="50px" viewBox="0 0 60 50" version="1.1" xmlns="http://www.w3.org/2000/svg" xmlns:xlink="http://www.w3.org/1999/xlink">
    <!-- Generator: Sketch 46.2 (44496) - http://www.bohemiancoding.com/sketch -->
    <title>illustration</title>
    <desc>Created with Sketch.</desc>
    <defs></defs>
    <g id="Page-1" stroke="none" stroke-width="1" fill="none" fill-rule="evenodd">
        <g id="Breeze-Wallet---Stratis-light---welcome" transform="translate(-266.000000, -553.000000)" fill="#F69D32">
            <g id="software">
                <g id="logo" transform="translate(266.000000, 553.000000)">
                    <path d="M37.6306633,38.592449 C34.4689286,37.5710204 31.1051531,34.142449 29.1485204,31.3582653 C27.1918878,28.5740816 24.9393367,22.939898 18.8806633,24.0240816 C13.6857653,24.9536735 11.4066837,31.1077551 6.60413265,31.2516327 C4.77403061,31.3067347 3.37607143,30.575102 2.52862245,29.8358163 C11.8755612,31.1322449 12.3255612,16.4026531 20.8362755,15.4995918 C27.1270918,14.8322449 29.7469898,19.7307143 31.7255612,23.8103061 C35.3622959,31.3082653 38.3852551,38.0291837 48.1536224,37.3531633 C47.0260714,38.1526531 42.1980102,40.0684694 37.6306633,38.592449 M50.0883163,34.8021429 C42.2225,35.9929592 37.650051,30.2827551 35.7852551,25.8796939 C32.6138265,18.3909184 29.9352551,12.7786735 20.475051,13.5332653 C22.1796429,12.7511224 24.5536224,11.7077551 28.5107653,12.0664286 C37.3117857,12.8633673 39.4801531,27.0853061 48.7520918,27.4980612 C54.5362755,27.7552041 57.6561735,25.1720408 58.7077041,19.6194898 C58.7117857,19.5960204 58.7444388,19.5888776 58.7617857,19.5730612 C55.9730102,6.69857143 43.5321939,-1.84632653 30.3980102,0.341428571 C19.8418878,2.09959184 11.9638265,10.2735714 10.0719898,20.2062245 C10.0719898,20.2062245 9.29545918,23.850102 6.35872449,26.7031633 C4.74443878,28.2710204 4.00515306,28.3608163 3.00260204,28.3490816 C1.69392857,28.3342857 5.10204082e-05,27.3169388 5.10204082e-05,27.3169388 C5.10204082e-05,27.3169388 0.510765306,32.8817347 6.3102551,33.2628571 C7.65107143,33.3511224 10.8184184,33.0720408 11.7684184,34.9363265 C16.2510714,45.0531633 27.1434184,51.267449 38.5633163,49.364898 C50.7219898,47.339898 59.3321939,36.8062245 59.3281122,24.8740816 C57.6709694,30.3531633 54.8153571,34.0868367 50.0883163,34.8021429" id="illustration"></path>
                </g>
            </g>
        </g>
    </g>
</svg>