<?xml version="1.0" encoding="UTF-8" standalone="no"?>
<svg width="120px" height="101px" viewBox="0 0 120 101" version="1.1" xmlns="http://www.w3.org/2000/svg" xmlns:xlink="http://www.w3.org/1999/xlink">
    <!-- Generator: Sketch 46.1 (44463) - http://www.bohemiancoding.com/sketch -->
    <title>Shape</title>
    <desc>Created with Sketch.</desc>
    <defs></defs>
    <g id="Page-1" stroke="none" stroke-width="1" fill="none" fill-rule="evenodd">
        <g id="Breeze-Wallet---Stratis-light---Not-tumbling---V2-after-review" transform="translate(-335.000000, -139.000000)" fill-rule="nonzero" fill="#DCE8F1">
            <g id="wallet" transform="translate(-5.000000, -24.000000)">
                <g id="Left" transform="translate(190.000000, 163.000000)">
                    <g id="illustration" transform="translate(150.000000, 0.000000)">
                        <path d="M1.8750293,0 L1.92378006,0 L118.124971,0 C119.159987,0 120,0.839811848 120,1.87040501 L120,1.91903554 L120,16.7831441 L120,16.8317747 L120,16.8804052 L120,99.129595 C120,100.162059 119.158112,101 118.124971,101 L118.07622,101 L1.8750293,101 C0.840013125,101 0,100.160188 0,99.129595 L0,99.0809645 L0,16.8804052 L0,16.8317747 L0,16.7831441 L0,1.87040501 C0,0.837941443 0.841888155,0 1.8750293,0 Z M46.7932311,89.3137095 C47.0013594,88.5056945 47.7344959,87.9071649 48.6082595,87.9071649 L46.7932311,89.3137095 Z M15.2702386,76.2208745 C15.4783668,75.4128595 16.2115033,74.8143299 17.085267,74.8143299 L15.2702386,76.2208745 Z M28.1216894,7.48162003 L31.871748,7.48162003 L31.871748,11.2243005 L28.1216894,11.2243005 L28.1216894,7.48162003 Z M18.7484179,7.48162003 L22.4984765,7.48162003 L22.4984765,11.2243005 L18.7484179,11.2243005 L18.7484179,7.48162003 Z M9.37514649,7.48162003 L13.1252051,7.48162003 L13.1252051,11.2243005 L9.37514649,11.2243005 L9.37514649,7.48162003 Z M116.249941,18.7059205 L3.75005859,18.7059205 L3.75005859,97.2610604 L116.249941,97.2610604 L116.249941,18.7059205 Z M3.75005859,14.9632401 L116.249941,14.9632401 L116.249941,3.74268042 L3.75005859,3.74268042 L3.75005859,14.9632401 Z M60.0246728,22.9827782 C59.6690463,22.9591616 59.3135234,22.9696191 58.9564975,23.0141175 C56.1074695,23.3691878 53.696129,25.6734626 51.8652551,28.9506992 L48.202942,35.1827666 C47.9704822,35.5365158 47.9522115,35.9892195 48.1554112,36.3604649 C48.3586109,36.7317102 48.750253,36.961155 49.174259,36.9573602 C49.598265,36.9535654 49.9857171,36.7171477 50.1822065,36.3423252 L53.8490075,30.1102577 C53.8536127,30.1013626 53.858101,30.0924077 53.862471,30.0833953 C55.4930443,27.1554983 57.4961405,25.5012927 59.2392499,25.283987 C60.9823616,25.0662228 62.9089853,26.0523436 64.8718519,29.5058546 L70.2127258,40.4880827 L60.4241159,37.6272413 C60.0249724,37.4938243 59.5846452,37.588803 59.2764174,37.8748003 C58.9681896,38.1607976 58.8414064,38.5920272 58.9459609,38.9987863 C59.0505155,39.4055455 59.3696695,39.7227147 59.7778254,39.8254778 L72.0708117,43.4160802 C72.3660549,43.5012865 72.6832118,43.4649544 72.9514061,43.315203 C73.2196003,43.1654517 73.4164754,42.9147644 73.4980349,42.6191632 L76.9090128,30.3027714 C77.0119439,29.948199 76.9373924,29.5658771 76.7087268,29.2756466 C76.4800612,28.985416 76.1252698,28.8228004 75.755564,28.8387727 C75.2511959,28.8597966 74.8196503,29.2067251 74.6918789,29.6938912 L72.088763,39.1046712 L66.9049751,28.4403144 C66.8951455,28.4191069 66.8846683,28.3982042 66.8735579,28.3776355 C64.9401415,24.9761301 62.5140622,23.1480936 60.0246728,22.9827782 Z M59.0821663,42.6863192 C49.5615769,42.6863192 41.8971208,50.4055935 41.8971206,59.8737516 C41.8971206,69.3453481 49.5616159,77.070141 59.0821663,77.070141 C68.6004072,77.070141 76.3659495,69.3536002 76.3659495,59.8737516 C76.3643515,59.7293653 76.3354196,59.5865803 76.2806759,59.4529097 C76.0416576,50.1816563 68.45067,42.6863192 59.0821663,42.6863192 Z M59.0821663,44.978575 C67.3594076,44.978575 74.0680276,51.6429526 74.0680276,59.8737516 C74.0680276,68.1082182 67.3594466,74.7778863 59.0821663,74.7778863 C50.8022295,74.7778863 44.1950421,68.1166995 44.1950421,59.8737516 C44.1950421,51.6347005 50.8022709,44.978575 59.0821663,44.978575 Z M36.9063213,57.6934231 C36.8673733,57.6929423 36.8284259,57.6944372 36.7896301,57.6979022 C36.7183523,57.7032701 36.6477322,57.7152609 36.578688,57.7337186 L24.1779882,60.948246 C23.7644107,61.0361569 23.4326561,61.3435562 23.3143093,61.7485192 C23.1959625,62.1534822 23.3101498,62.5905621 23.6115806,62.8863983 C23.9130114,63.1822345 24.352971,63.2890165 24.7569568,63.164391 L34.2358848,60.7064865 L27.5665253,70.5157229 C27.5524634,70.5347043 27.5389926,70.5541144 27.5261322,70.5739255 C25.255172,74.4260596 25.0885177,77.8033393 26.8259841,80.0921556 C28.5634505,82.380972 31.7774363,83.3103735 35.5509065,83.2484826 L42.7678177,83.3022085 C43.1814886,83.3102934 43.5675762,83.0959076 43.778643,82.74092 C43.9897098,82.3859324 43.9931618,81.9451619 43.7876808,81.586928 C43.5821998,81.2286941 43.1995172,81.0083172 42.7857702,81.0099538 L35.5419302,80.9562279 C35.5329543,80.956123 35.5239774,80.956123 35.5150015,80.9562279 C32.1570364,81.011242 29.717238,80.1051848 28.6571407,78.7087432 C27.5998635,77.3159693 27.4956705,75.1621599 29.4964208,71.7558694 L36.3677459,61.6421917 L38.7778712,71.5230634 C38.8748801,71.9213388 39.1775227,72.2377344 39.5717965,72.3530671 C39.9660703,72.4683997 40.3920757,72.3651477 40.6893406,72.0822051 C40.9866054,71.7992624 41.1099682,71.3796148 41.0129593,70.9813394 L37.9834722,58.570928 C37.8627646,58.070285 37.4221999,57.7113774 36.9063213,57.6934231 L36.9063213,57.6934231 Z M83.5290043,62.9494921 L83.5290043,62.9584479 C83.1025786,62.9649467 82.7148367,63.2065003 82.5218549,63.5858771 C82.3288731,63.9652539 82.3623988,64.4200427 82.608937,64.767179 L86.7021105,70.726145 C86.7065138,70.7336578 86.7110027,70.7411203 86.7155763,70.7485312 C88.6777903,73.4664576 89.3249724,75.9781086 88.7801144,77.6432047 C88.2361044,79.305777 86.5198876,80.6209352 82.5640563,80.9248882 L70.3339044,81.0636774 L77.0795623,73.4616301 C77.3859379,73.1281787 77.4670843,72.6461799 77.2867124,72.2311863 C77.1063405,71.8161928 76.6981832,71.5458162 76.2447709,71.5409705 C75.9055344,71.5370769 75.5819116,71.6829213 75.3606087,71.9394285 L66.8735579,81.5024287 C66.6689955,81.7317877 66.5652136,82.0334162 66.585461,82.339745 C66.6057084,82.6460737 66.7482928,82.9314984 66.981273,83.1320796 L76.7070485,91.4504565 C77.0143944,91.7437538 77.4590155,91.8437044 77.8627674,91.7102617 C78.2665192,91.5768191 78.5633511,91.2318133 78.6343328,90.8134762 C78.7053145,90.3951392 78.5388339,89.9719078 78.2015939,89.7133561 L70.7737427,83.3514553 L82.6538177,83.2171429 C82.6777486,83.2178892 82.7016969,83.2178892 82.7256278,83.2171429 C87.1933304,82.8781185 90.0682789,81.0844429 90.9613456,78.3550552 C91.8521581,75.6325443 90.7900815,72.4753508 88.5961014,69.4277982 L88.5871258,69.4054143 L84.502928,63.4553996 C84.2852898,63.1329318 83.9186416,62.9424753 83.5290043,62.9494921 L83.5290043,62.9494921 Z M52.4674797,63.4837398 L52.4674797,62.0609756 L54.7642276,62.0609756 L54.7642276,52.4268293 L61.0243902,52.4268293 C62.7317159,52.4268293 63.9444409,52.9349543 64.6626016,53.9512195 C65.0826579,54.5474285 65.2926829,55.2384785 65.2926829,56.0243902 C65.2926829,56.9458041 65.0352329,57.7046041 64.5203252,58.300813 C64.2493211,58.6124677 63.8563711,58.8970177 63.3414634,59.1544715 C64.0867246,59.4390258 64.6490496,59.7574508 65.0284553,60.1097561 C65.678865,60.7466157 66.004065,61.6273657 66.004065,62.7520325 C66.004065,63.6869965 65.71274,64.5338715 65.1300813,65.2926829 C64.2493181,66.4309 62.8468931,67 60.9227642,67 L54.7642276,67 L54.7642276,63.4837398 L52.4674797,63.4837398 Z M60.9430894,65.3130081 C62.1626077,65.3130081 63.0298077,64.9607081 63.5447154,64.2560976 C63.8699203,63.8224911 64.0325203,63.2872661 64.0325203,62.6504065 C64.0325203,61.5934907 63.5582703,60.8753407 62.6097561,60.495935 C62.1083986,60.2926819 61.4444486,60.1910569 60.6178862,60.1910569 L56.695122,60.1910569 L56.695122,62.0609756 L58.8292683,62.0609756 L58.8292683,63.4837398 L56.695122,63.4837398 L56.695122,65.3130081 L60.9430894,65.3130081 Z M60.2926829,58.5853659 C61.1192453,58.5853659 61.7628703,58.4701909 62.2235772,58.2398374 C62.9552882,57.8739819 63.3211382,57.2168069 63.3211382,56.2682927 C63.3211382,55.3197785 62.9349632,54.6761535 62.1626016,54.3373984 C61.7289951,54.1612457 61.0785951,54.0731707 60.2113821,54.0731707 L56.695122,54.0731707 L56.695122,58.5853659 L60.2926829,58.5853659 Z" id="Shape"></path>
                    </g>
                </g>
            </g>
        </g>
    </g>
</svg>