<?xml version="1.0" encoding="UTF-8"?>
<svg width="113px" height="30px" viewBox="0 0 113 30" version="1.1" xmlns="http://www.w3.org/2000/svg" xmlns:xlink="http://www.w3.org/1999/xlink">
    <!-- Generator: Sketch 46.2 (44496) - http://www.bohemiancoding.com/sketch -->
    <title>logo</title>
    <desc>Created with Sketch.</desc>
    <defs>
        <linearGradient x1="-1.11022302e-14%" y1="50%" x2="100%" y2="50%" id="linearGradient-1">
            <stop stop-color="#20B7C1" offset="0%"></stop>
            <stop stop-color="#1387C8" offset="100%"></stop>
        </linearGradient>
    </defs>
    <g id="Page-1" stroke="none" stroke-width="1" fill="none" fill-rule="evenodd">
        <g id="Breeze-Wallet---V2" transform="translate(-1065.000000, -15.000000)">
            <g id="wallet" transform="translate(0.000000, -24.000000)">
                <g id="content">
                    <g id="links">
                        <g id="logo" transform="translate(1065.000000, 39.000000)">
                            <path d="M22.578398,23.1554694 C20.6813571,22.5426122 18.6630918,20.4854694 17.4891122,18.8149592 C16.3151327,17.144449 14.963602,13.7639388 11.328398,14.414449 C8.21145918,14.9722041 6.8440102,18.6646531 3.96247959,18.7509796 C2.86441837,18.7840408 2.02564286,18.3450612 1.51717347,17.9014898 C7.12533673,18.6793469 7.39533673,9.84159184 12.5017653,9.2997551 C16.2762551,8.89934694 17.8481939,11.8384286 19.0353367,14.2861837 C21.2173776,18.7849592 23.0311531,22.8175102 28.8921735,22.411898 C28.2156429,22.8915918 25.3188061,24.0410816 22.578398,23.1554694 M30.0529898,20.8812857 C25.3335,21.5957755 22.5900306,18.1696531 21.4711531,15.5278163 C19.5682959,11.034551 17.9611531,7.66720408 12.2850306,8.11995918 C13.3077857,7.65067347 14.7321735,7.02465306 17.1064592,7.23985714 C22.3870714,7.71802041 23.6880918,16.2511837 29.2512551,16.4988367 C32.7217653,16.6531224 34.5937041,15.1032245 35.2246224,11.7716939 C35.2270714,11.7576122 35.2466633,11.7533265 35.2570714,11.7438367 C33.5838061,4.01914286 26.1193163,-1.10779592 18.2388061,0.204857143 C11.9051327,1.2597551 7.17829592,6.16414286 6.04319388,12.1237347 C6.04319388,12.1237347 5.57727551,14.3100612 3.81523469,16.021898 C2.84666327,16.9626122 2.40309184,17.0164898 1.80156122,17.009449 C1.01635714,17.0005714 3.06122449e-05,16.3901633 3.06122449e-05,16.3901633 C3.06122449e-05,16.3901633 0.306459184,19.7290408 3.78615306,19.9577143 C4.59064286,20.0106735 6.49105102,19.8432245 7.06105102,20.9617959 C9.75064286,27.031898 16.286051,30.7604694 23.1379898,29.6189388 C30.4331939,28.4039388 35.5993163,22.0837347 35.5968673,14.924449 C34.6025816,18.211898 32.8892143,20.452102 30.0529898,20.8812857" id="illustration" fill="url(#linearGradient-1)"></path>
                            <path d="M58.4161224,23.2216837 C58.135102,23.2216837 57.9110204,23.1277041 57.7095918,22.9262755 C57.4986735,22.7214796 57.4022449,22.4943367 57.4022449,22.2078061 L57.4022449,12.5603571 C57.4022449,12.2820918 57.4986735,12.0589286 57.7053061,11.8581122 C57.9146939,11.642602 58.1378571,11.5464796 58.4161224,11.5464796 C58.9481633,11.5464796 59.2383673,11.7665816 59.3865306,12.282398 L59.5478571,12.8447449 L60.0388776,12.5260714 C61.017551,11.8908673 62.0966327,11.5614796 63.2455102,11.5464796 C63.5262245,11.5464796 63.7530612,11.6429082 63.9541837,11.8495408 C64.159898,12.0552551 64.2535714,12.279949 64.2535714,12.5603571 C64.2535714,12.8572959 64.159898,13.0896429 63.9584694,13.2910714 C63.7637755,13.4802551 63.5271429,13.5742347 63.24,13.5742347 C62.1826531,13.5742347 61.2746939,13.955051 60.5418367,14.7059694 C60.1845918,15.0632143 59.9090816,15.4725 59.727551,15.9179082 C59.6712245,16.0425 59.5809184,16.3284184 59.4345918,17.3211735 L59.43,17.352398 L59.43,22.2078061 C59.43,22.4967857 59.3363265,22.7254592 59.134898,22.9259694 C58.9334694,23.1277041 58.705102,23.2216837 58.4161224,23.2216837 Z M70.5745714,23.2216224 C70.2855918,23.2216224 69.9923265,23.2063163 69.7033469,23.1760102 C68.4121224,22.9987653 67.2862041,22.4434592 66.3705918,21.5275408 C65.8636531,21.0209082 65.4555918,20.4276429 65.1571224,19.763051 L65.0876327,19.6014184 L65.0230408,19.4266224 C64.786102,18.7537653 64.6645714,18.068051 64.6645714,17.3961122 C64.6645714,16.6363163 64.8197755,15.8768265 65.125898,15.1381531 C65.5713061,14.0691735 66.2946735,13.2068265 67.2757959,12.5752959 C68.2253878,11.9688673 69.3188571,11.6302959 70.523449,11.5702959 L70.7193673,11.570602 C71.7577347,11.570602 72.758449,11.8978469 73.6933469,12.5431531 C74.6288571,13.1890714 75.3540612,14.0501939 75.8487551,15.1026429 C75.8548776,15.1213163 75.8619184,15.1393776 75.8698776,15.1577449 L75.8698776,15.2376429 L75.8815102,15.2501939 L75.8815102,15.2599898 L75.893449,15.2743776 L75.893449,15.2896837 L75.9053878,15.305602 L75.9053878,15.3564184 L75.9298776,15.3836633 L75.9298776,15.398051 L75.9418163,15.4127449 L75.9418163,15.6992755 L75.9053878,15.7173367 L75.9053878,15.9077449 L75.8698776,15.945398 L75.8698776,15.9640714 L75.8570204,15.9769286 L75.8524286,16.0170306 L75.7605918,16.0605 L75.7605918,16.1933571 L75.7312041,16.245398 C75.7232449,16.2536633 75.6225306,16.3516224 75.6225306,16.3516224 L75.6136531,16.3657041 L75.6032449,16.3748878 L75.5943673,16.3794796 C75.5943673,16.3794796 75.5628367,16.4070306 75.5606939,16.4082551 L75.2300816,16.4082551 L75.2300816,16.5708061 L67.4215102,19.745602 L67.9140612,20.2081531 C68.0631429,20.348051 68.2250816,20.4717245 68.3949796,20.5758061 C68.9545714,20.9612143 69.6182449,21.1816224 70.3486531,21.2177449 L70.4781429,21.218051 C71.1522245,21.218051 71.7907959,21.0539694 72.3764082,20.7297857 C72.8074286,20.4769286 73.2387551,20.0621327 73.7040612,19.4569286 C73.8816122,19.1838673 74.0922245,19.0314184 74.3695714,18.9619286 C74.4568163,18.9374388 74.5302857,18.9270306 74.6019184,18.9270306 C74.7944694,18.9270306 74.9686531,18.9769286 75.1336531,19.0788673 C75.3745714,19.2282551 75.516,19.425398 75.578449,19.6993776 C75.5943673,19.7841735 75.6041633,19.8784592 75.6041633,19.9647857 C75.6041633,20.1496837 75.5545714,20.3198878 75.4526327,20.4839694 C74.7344694,21.428051 74.0279388,22.1113163 73.3749796,22.4823367 C72.5062041,22.9727449 71.5636531,23.2216224 70.5745714,23.2216224 Z M83.5149796,23.2216224 C83.226,23.2216224 82.9327347,23.2063163 82.6437551,23.1760102 C81.3522245,22.9987653 80.2269184,22.4434592 79.311,21.5275408 C78.8043673,21.0209082 78.3963061,20.4276429 78.0975306,19.763051 L78.0280408,19.6014184 L77.963449,19.4266224 C77.7268163,18.7534592 77.6049796,18.0671327 77.6049796,17.3961122 C77.6049796,16.6363163 77.7604898,15.8768265 78.0666122,15.1381531 C78.5120204,14.0691735 79.2353878,13.2068265 80.2165102,12.5752959 C81.166102,11.9688673 82.2589592,11.6302959 83.4641633,11.5702959 L83.6597755,11.570602 C84.6981429,11.570602 85.6988571,11.8978469 86.633449,12.5431531 C87.5689592,13.1890714 88.2941633,14.0501939 88.7888571,15.1026429 C88.7952857,15.1213163 88.8020204,15.1393776 88.8099796,15.1577449 L88.8099796,15.2309082 L88.8219184,15.2443776 L88.8219184,15.2599898 L88.8338571,15.2743776 L88.8338571,15.2964184 L88.846102,15.3120306 L88.846102,15.3564184 L88.8702857,15.383051 L88.8702857,15.4047857 L88.8819184,15.4191735 L88.8819184,15.6995816 L88.846102,15.7173367 L88.846102,15.9074388 L88.8099796,15.945398 L88.8099796,15.9625408 L88.7977347,15.9747857 L88.7928367,16.0173367 L88.7013061,16.0605 L88.7013061,16.1927449 L88.6957959,16.197949 L88.671,16.2466224 C88.6633469,16.2542755 88.6566122,16.2625408 88.6495714,16.2698878 L88.6422245,16.2750918 L88.5626327,16.3546837 L88.5571224,16.3632551 C88.5571224,16.3632551 88.5041633,16.4064184 88.501102,16.4082551 L88.1707959,16.4082551 L88.1707959,16.5705 L80.3616122,19.7462143 L80.8550816,20.2084592 C81.0044694,20.3486633 81.166102,20.4720306 81.3353878,20.5758061 C81.8952857,20.9612143 82.5589592,21.1816224 83.2890612,21.2177449 L83.418551,21.218051 C84.0929388,21.218051 84.7315102,21.0539694 85.3168163,20.7297857 C85.7478367,20.4769286 86.1791633,20.0621327 86.6444694,19.4569286 C86.8217143,19.1838673 87.0323265,19.0314184 87.3099796,18.9619286 C87.3975306,18.9374388 87.4706939,18.9270306 87.5426327,18.9270306 C87.7351837,18.9270306 87.9090612,18.9763163 88.0737551,19.0788673 C88.3149796,19.2282551 88.4564082,19.425398 88.5194694,19.6999898 C88.5344694,19.7838673 88.5442653,19.8790714 88.5442653,19.9647857 C88.5442653,20.1496837 88.4946735,20.3198878 88.3927347,20.4839694 C87.6748776,21.428051 86.9680408,22.1119286 86.3156939,22.4823367 C85.4466122,22.9727449 84.5037551,23.2216224 83.5149796,23.2216224 Z M90.8495816,23.2216837 C90.4678469,23.2216837 90.1828469,23.1108673 89.9774388,22.8828061 C89.7812143,22.6801531 89.6909082,22.4392347 89.6909082,22.1355612 C89.6909082,22.0822959 89.6936633,22.0314796 89.6994796,21.9837245 C89.7108061,21.8903571 89.7793776,21.6870918 90.1145816,21.3604592 L94.8343776,16.6287245 L97.8888673,13.5742347 L90.6925408,13.5742347 C90.4133571,13.5742347 90.1807041,13.4802551 89.9817245,13.2867857 C89.7747857,13.0859694 89.6786633,12.8548469 89.6786633,12.5603571 C89.6786633,12.2820918 89.7747857,12.0589286 89.9817245,11.8581122 C90.1911122,11.642602 90.4142755,11.5464796 90.6925408,11.5464796 L100.219378,11.5464796 C100.732745,11.5464796 101.049582,11.7457653 101.246112,12.192398 C101.310398,12.3387245 101.341622,12.4786224 101.341622,12.6203571 C101.341622,12.8732143 101.229582,13.1083163 100.998459,13.3394388 L93.1436633,21.1939286 L100.327745,21.1939286 C100.625296,21.1939286 100.853357,21.2842347 101.046827,21.4770918 C101.243969,21.6797449 101.341622,21.9206633 101.341622,22.2078061 C101.341622,22.4869898 101.243969,22.7236224 101.042541,22.9305612 C100.849378,23.1295408 100.622847,23.2216837 100.327745,23.2216837 L90.8495816,23.2216837 Z M107.591296,23.2216224 C107.302316,23.2216224 107.009051,23.2063163 106.720071,23.1760102 C105.428541,22.9987653 104.303235,22.4434592 103.387316,21.5275408 C102.88099,21.0209082 102.472622,20.4276429 102.173847,19.763051 L102.104357,19.6014184 L102.039765,19.4266224 C101.802827,18.7534592 101.681296,18.0671327 101.681296,17.3961122 C101.681296,16.6363163 101.836806,15.8768265 102.142929,15.1381531 C102.588031,14.0691735 103.311704,13.2068265 104.29252,12.5752959 C105.242418,11.9688673 106.335276,11.6302959 107.54048,11.5702959 L107.736092,11.570602 C108.774459,11.570602 109.775173,11.8978469 110.709765,12.5431531 C111.645276,13.1890714 112.37048,14.0501939 112.865173,15.1026429 C112.871602,15.1213163 112.878337,15.1393776 112.886296,15.1577449 L112.886296,15.2309082 L112.898235,15.2443776 L112.898235,15.2599898 L112.910173,15.2743776 L112.910173,15.2964184 L112.922418,15.3120306 L112.922418,15.3564184 L112.946602,15.383051 L112.946602,15.4047857 L112.958235,15.4191735 L112.958235,15.6995816 L112.922418,15.7173367 L112.922418,15.9074388 L112.886296,15.945398 L112.886296,15.9625408 L112.874051,15.9747857 L112.869153,16.0173367 L112.777622,16.0605 L112.777622,16.1927449 L112.772112,16.197949 L112.74701,16.2466224 C112.739663,16.2542755 112.732929,16.2625408 112.725888,16.2698878 L112.718541,16.2750918 L112.638949,16.3546837 L112.633439,16.3632551 C112.633439,16.3632551 112.58048,16.4064184 112.577418,16.4082551 L112.247112,16.4082551 L112.247112,16.5705 L104.437622,19.7462143 L104.931398,20.2084592 C105.080786,20.3486633 105.242418,20.4720306 105.411704,20.5758061 C105.971602,20.9612143 106.635276,21.1816224 107.365378,21.2177449 L107.494867,21.218051 C108.169255,21.218051 108.807827,21.0539694 109.393133,20.7297857 C109.824153,20.4769286 110.255173,20.0621327 110.720786,19.4569286 C110.898031,19.1838673 111.108643,19.0314184 111.386296,18.9619286 C111.473847,18.9374388 111.54701,18.9270306 111.618949,18.9270306 C111.8115,18.9270306 111.985378,18.9763163 112.150071,19.0788673 C112.391296,19.2282551 112.532724,19.425398 112.595786,19.6999898 C112.610786,19.7838673 112.620582,19.8790714 112.620582,19.9647857 C112.620582,20.1496837 112.57099,20.3198878 112.469051,20.4839694 C111.751194,21.428051 111.044357,22.1119286 110.39201,22.4823367 C109.522929,22.9727449 108.580071,23.2216224 107.591296,23.2216224 Z M50.1651122,23.2216837 C49.4074592,23.2216837 48.6611327,23.067398 47.9472551,22.7621939 C47.6288878,22.6290306 47.3227653,22.4609694 47.0350102,22.2616837 L46.5458265,21.9231122 L46.3737857,22.4921939 C46.2191939,23.0037245 45.9280714,23.2216837 45.4015408,23.2216837 C45.122051,23.2216837 44.8857245,23.1240306 44.6787857,22.9219898 C44.4813367,22.7254592 44.3876633,22.497398 44.3876633,22.2078061 L44.3876633,7.74841837 C44.3876633,7.4680102 44.4816429,7.24331633 44.6830714,7.04188776 C44.8924592,6.8325 45.1208265,6.73484694 45.4015408,6.73484694 C45.6785816,6.73484694 45.9136837,6.83494898 46.1203163,7.04188776 C46.3214388,7.24362245 46.4154184,7.4680102 46.4154184,7.74841837 L46.4154184,12.8811735 L47.0772551,12.4703571 C47.2930714,12.3362755 47.5199082,12.2156633 47.7507245,12.1109694 C48.4872551,11.7653571 49.2987857,11.5761735 50.1678673,11.5461735 L50.2113367,11.5663776 L50.3047041,11.5703571 C52.026949,11.6389286 53.3965408,12.2410714 54.4912347,13.4113776 C55.5234796,14.5339286 56.0267449,15.8303571 56.0267449,17.3722959 L56.0267449,17.5048469 C55.9964388,19.0914796 55.4463367,20.4019898 54.344602,21.5037245 C53.5110306,22.3372959 52.4992959,22.8730102 51.3372551,23.0964796 C50.9368469,23.1803571 50.5447041,23.2216837 50.1651122,23.2216837 Z M50.2140918,13.5742347 C49.1723571,13.6011735 48.2745,13.9801531 47.5453163,14.7001531 C46.7956224,15.4406633 46.4154184,16.3437245 46.4154184,17.3842347 C46.4154184,18.2710714 46.7080714,19.0780102 47.2857245,19.7814796 C47.852051,20.4828061 48.5809286,20.9315816 49.449398,21.1125 C49.7209286,21.1669898 49.9848061,21.1939286 50.2373571,21.1939286 C50.9637857,21.1939286 51.6599082,20.9796429 52.3073571,20.5562755 C53.184398,19.9780102 53.7338878,19.1677041 53.942051,18.1458673 C53.9956224,17.8966837 54.0231735,17.6346429 54.0231735,17.3722959 C54.0231735,16.8001531 53.8900102,16.2439286 53.6276633,15.7192347 C53.241949,14.9294388 52.6548061,14.3389286 51.8849082,13.9669898 C51.3984796,13.7328061 50.8465408,13.6011735 50.244398,13.5745408 L50.229398,13.5739286 L50.2140918,13.5742347 Z M83.3943673,13.5983571 C82.0804898,13.5983571 81.0341633,14.1662143 80.2847755,15.2857041 C79.8978367,15.8440714 79.6814082,16.4832551 79.6455918,17.1809082 L79.6106939,17.8598878 L86.506102,15.0692755 L86.0037551,14.6058061 C85.4169184,14.0642755 84.7370204,13.7385612 83.9821224,13.6381531 C83.7852857,13.6118265 83.5872245,13.5983571 83.3943673,13.5983571 Z M107.470684,13.5983571 C106.156806,13.5983571 105.11048,14.1662143 104.361092,15.2857041 C103.973847,15.8440714 103.757724,16.4832551 103.721602,17.1809082 L103.68701,17.8598878 L110.582418,15.0692755 L110.080071,14.6058061 C109.493235,14.0642755 108.813337,13.7385612 108.058439,13.6381531 C107.861602,13.6118265 107.663541,13.5983571 107.470684,13.5983571 Z M70.4536531,13.5983571 C69.1400816,13.5983571 68.0937551,14.1662143 67.3443673,15.2857041 C66.9574286,15.8440714 66.741,16.4832551 66.7048776,17.180602 L66.6696735,17.8598878 L73.5650816,15.0692755 L73.0630408,14.6058061 C72.4768163,14.0642755 71.7966122,13.7385612 71.0414082,13.6381531 C70.8445714,13.6118265 70.6468163,13.5983571 70.4536531,13.5983571 Z" id="Breeze" fill="#A1AFB5"></path>
                        </g>
                    </g>
                </g>
            </g>
        </g>
    </g>
</svg>